<svg xmlns="http://www.w3.org/2000/svg" xmlns:xlink="http://www.w3.org/1999/xlink" width="61" height="61" viewBox="0 0 61 61"><defs><path id="rpola" d="M577.62 3612.55h-15.94v-1.87h15.94v-15.94h1.87v15.94h15.94v1.87h-15.94v15.94h-1.87zm-29.07-.94a28.9 28.9 0 0 1 8.8-21.2 28.9 28.9 0 0 1 21.2-8.8 28.9 28.9 0 0 1 21.22 8.8 28.9 28.9 0 0 1 8.78 21.2 28.9 28.9 0 0 1-8.78 21.21 28.9 28.9 0 0 1-21.22 8.8 28.9 28.9 0 0 1-21.2-8.8 28.9 28.9 0 0 1-8.8-21.2zm1.88 0c0 7.66 2.73 14.3 8.2 19.93 5.63 5.46 12.27 8.2 19.92 8.2 7.66 0 14.3-2.74 19.93-8.2 5.46-5.63 8.2-12.27 8.2-19.93 0-7.65-2.74-14.3-8.2-19.92-5.63-5.47-12.27-8.2-19.93-8.2-7.65 0-14.3 2.73-19.92 8.2-5.47 5.63-8.2 12.27-8.2 19.92z"/></defs><g><g transform="translate(-548 -3581)"><use fill="#fff" xlink:href="#rpola"/></g></g></svg>